<?xml version="1.0" encoding="utf-8"?>
<!-- Generator: Adobe Illustrator 25.1.0, SVG Export Plug-In . SVG Version: 6.00 Build 0)  -->
<svg version="1.1" id="Layer_1" xmlns="http://www.w3.org/2000/svg" xmlns:xlink="http://www.w3.org/1999/xlink" x="0px" y="0px"
	 viewBox="0 0 256 256" style="enable-background:new 0 0 256 256;" xml:space="preserve">
<style type="text/css">
	.st0{fill:#E6E6E6;}
</style>
<path class="st0" d="M128,0C57.31,0,0,57.31,0,128s57.31,128,128,128c70.69,0,128-57.31,128-128S198.69,0,128,0z M188.27,133.32
	l-91.15,90.42c-1.87,1.85-4.6,2.36-6.96,1.45c-0.41-0.16-0.82-0.37-1.21-0.63c-2.57-1.69-3.61-4.95-2.5-7.81l26.01-66.81
	l-42.52-16.55c-2.05-0.8-3.57-2.59-4.01-4.75c-0.45-2.15,0.22-4.41,1.78-5.95l91.15-90.42c2.18-2.16,5.55-2.54,8.17-0.82
	c2.57,1.69,3.61,4.95,2.5,7.81l-26.01,66.81l42.52,16.55c2.05,0.8,3.57,2.58,4.01,4.75C190.52,129.54,189.83,131.76,188.27,133.32z"
	/>
</svg>
